<mxfile host="Electron" agent="Mozilla/5.0 (Windows NT 10.0; Win64; x64) AppleWebKit/537.36 (KHTML, like Gecko) draw.io/26.2.15 Chrome/134.0.6998.205 Electron/35.2.1 Safari/537.36" version="26.2.15">
  <diagram name="Страница — 1" id="UoEbN1BX66kjQdLWVuL1">
    <mxGraphModel dx="31" dy="511" grid="1" gridSize="10" guides="1" tooltips="1" connect="1" arrows="1" fold="1" page="1" pageScale="1" pageWidth="827" pageHeight="1169" math="0" shadow="0">
      <root>
        <mxCell id="0" />
        <mxCell id="1" parent="0" />
        <object placeholders="1" c4Name="Интеллектуальный домофон" c4Type="Container" c4Technology="" c4Description="Умные устройства" label="&lt;font style=&quot;font-size: 16px&quot;&gt;&lt;b&gt;%c4Name%&lt;/b&gt;&lt;/font&gt;&lt;div&gt;[%c4Type%: %c4Technology%]&lt;/div&gt;&lt;br&gt;&lt;div&gt;&lt;font style=&quot;font-size: 11px&quot;&gt;&lt;font color=&quot;#E6E6E6&quot;&gt;%c4Description%&lt;/font&gt;&lt;/div&gt;" id="CIXTt0-dMJMr4OcohfUg-1">
          <mxCell style="rounded=1;whiteSpace=wrap;html=1;fontSize=11;labelBackgroundColor=none;fillColor=#23A2D9;fontColor=#ffffff;align=center;arcSize=10;strokeColor=#0E7DAD;metaEdit=1;resizable=0;points=[[0.25,0,0],[0.5,0,0],[0.75,0,0],[1,0.25,0],[1,0.5,0],[1,0.75,0],[0.75,1,0],[0.5,1,0],[0.25,1,0],[0,0.75,0],[0,0.5,0],[0,0.25,0]];" parent="1" vertex="1">
            <mxGeometry x="930" y="120" width="240" height="120" as="geometry" />
          </mxCell>
        </object>
        <object placeholders="1" c4Name="Интеллектуальный шлагбаум" c4Type="Container" c4Technology="" c4Description="Умные устройства" label="&lt;font style=&quot;font-size: 16px&quot;&gt;&lt;b&gt;%c4Name%&lt;/b&gt;&lt;/font&gt;&lt;div&gt;[%c4Type%: %c4Technology%]&lt;/div&gt;&lt;br&gt;&lt;div&gt;&lt;font style=&quot;font-size: 11px&quot;&gt;&lt;font color=&quot;#E6E6E6&quot;&gt;%c4Description%&lt;/font&gt;&lt;/div&gt;" id="CIXTt0-dMJMr4OcohfUg-2">
          <mxCell style="rounded=1;whiteSpace=wrap;html=1;fontSize=11;labelBackgroundColor=none;fillColor=#23A2D9;fontColor=#ffffff;align=center;arcSize=10;strokeColor=#0E7DAD;metaEdit=1;resizable=0;points=[[0.25,0,0],[0.5,0,0],[0.75,0,0],[1,0.25,0],[1,0.5,0],[1,0.75,0],[0.75,1,0],[0.5,1,0],[0.25,1,0],[0,0.75,0],[0,0.5,0],[0,0.25,0]];" parent="1" vertex="1">
            <mxGeometry x="1241" y="120" width="240" height="120" as="geometry" />
          </mxCell>
        </object>
        <object placeholders="1" c4Name="Внешний сервис Умного дома" c4Type="Container" c4Technology="" c4Description="" label="&lt;font style=&quot;font-size: 16px&quot;&gt;&lt;b&gt;%c4Name%&lt;/b&gt;&lt;/font&gt;&lt;div&gt;[%c4Type%: %c4Technology%]&lt;/div&gt;&lt;br&gt;&lt;div&gt;&lt;font style=&quot;font-size: 11px&quot;&gt;&lt;font color=&quot;#E6E6E6&quot;&gt;%c4Description%&lt;/font&gt;&lt;/div&gt;" id="CIXTt0-dMJMr4OcohfUg-3">
          <mxCell style="rounded=1;whiteSpace=wrap;html=1;fontSize=11;labelBackgroundColor=none;fillColor=#23A2D9;fontColor=#ffffff;align=center;arcSize=10;strokeColor=#0E7DAD;metaEdit=1;resizable=0;points=[[0.25,0,0],[0.5,0,0],[0.75,0,0],[1,0.25,0],[1,0.5,0],[1,0.75,0],[0.75,1,0],[0.5,1,0],[0.25,1,0],[0,0.75,0],[0,0.5,0],[0,0.25,0]];" parent="1" vertex="1">
            <mxGeometry x="1510" y="340" width="240" height="120" as="geometry" />
          </mxCell>
        </object>
        <object placeholders="1" c4Name="Сервис для Собственника" c4Type="Container" c4Technology="" c4Description="" label="&lt;font style=&quot;font-size: 16px&quot;&gt;&lt;b&gt;%c4Name%&lt;/b&gt;&lt;/font&gt;&lt;div&gt;[%c4Type%: %c4Technology%]&lt;/div&gt;&lt;br&gt;&lt;div&gt;&lt;font style=&quot;font-size: 11px&quot;&gt;&lt;font color=&quot;#E6E6E6&quot;&gt;%c4Description%&lt;/font&gt;&lt;/div&gt;" id="CIXTt0-dMJMr4OcohfUg-4">
          <mxCell style="rounded=1;whiteSpace=wrap;html=1;fontSize=11;labelBackgroundColor=none;fillColor=#23A2D9;fontColor=#ffffff;align=center;arcSize=10;strokeColor=#0E7DAD;metaEdit=1;resizable=0;points=[[0.25,0,0],[0.5,0,0],[0.75,0,0],[1,0.25,0],[1,0.5,0],[1,0.75,0],[0.75,1,0],[0.5,1,0],[0.25,1,0],[0,0.75,0],[0,0.5,0],[0,0.25,0]];" parent="1" vertex="1">
            <mxGeometry x="1120" y="640" width="240" height="120" as="geometry" />
          </mxCell>
        </object>
        <mxCell id="CIXTt0-dMJMr4OcohfUg-5" style="edgeStyle=orthogonalEdgeStyle;rounded=0;orthogonalLoop=1;jettySize=auto;html=1;entryX=0.75;entryY=1;entryDx=0;entryDy=0;entryPerimeter=0;startArrow=classic;startFill=1;" parent="1" source="CIXTt0-dMJMr4OcohfUg-4" target="CIXTt0-dMJMr4OcohfUg-3" edge="1">
          <mxGeometry relative="1" as="geometry" />
        </mxCell>
        <mxCell id="CIXTt0-dMJMr4OcohfUg-6" value="1. id/токен автомобиля&lt;div&gt;2.&amp;nbsp; id/токен пользователя&lt;/div&gt;" style="edgeLabel;html=1;align=left;verticalAlign=middle;resizable=0;points=[];" parent="CIXTt0-dMJMr4OcohfUg-5" vertex="1" connectable="0">
          <mxGeometry x="0.6999" y="-3" relative="1" as="geometry">
            <mxPoint x="-223" y="174" as="offset" />
          </mxGeometry>
        </mxCell>
        <mxCell id="CIXTt0-dMJMr4OcohfUg-7" style="edgeStyle=orthogonalEdgeStyle;rounded=0;orthogonalLoop=1;jettySize=auto;html=1;entryX=0;entryY=0.25;entryDx=0;entryDy=0;entryPerimeter=0;exitX=0.25;exitY=1;exitDx=0;exitDy=0;exitPerimeter=0;" parent="1" source="CIXTt0-dMJMr4OcohfUg-2" target="CIXTt0-dMJMr4OcohfUg-3" edge="1">
          <mxGeometry relative="1" as="geometry">
            <mxPoint x="1570" y="343" as="targetPoint" />
            <Array as="points">
              <mxPoint x="1301" y="370" />
            </Array>
          </mxGeometry>
        </mxCell>
        <mxCell id="CIXTt0-dMJMr4OcohfUg-12" value="Номер Автомобиля" style="edgeLabel;html=1;align=center;verticalAlign=middle;resizable=0;points=[];" parent="CIXTt0-dMJMr4OcohfUg-7" vertex="1" connectable="0">
          <mxGeometry x="-0.5801" y="-4" relative="1" as="geometry">
            <mxPoint x="63" y="49" as="offset" />
          </mxGeometry>
        </mxCell>
        <mxCell id="CIXTt0-dMJMr4OcohfUg-8" style="edgeStyle=orthogonalEdgeStyle;rounded=0;orthogonalLoop=1;jettySize=auto;html=1;entryX=0;entryY=0.75;entryDx=0;entryDy=0;entryPerimeter=0;exitX=0.25;exitY=1;exitDx=0;exitDy=0;exitPerimeter=0;" parent="1" source="CIXTt0-dMJMr4OcohfUg-1" target="CIXTt0-dMJMr4OcohfUg-3" edge="1">
          <mxGeometry relative="1" as="geometry">
            <mxPoint x="1011" y="290" as="sourcePoint" />
            <mxPoint x="1471" y="420" as="targetPoint" />
            <Array as="points">
              <mxPoint x="990" y="430" />
            </Array>
          </mxGeometry>
        </mxCell>
        <mxCell id="CIXTt0-dMJMr4OcohfUg-11" value="Видео звонок&lt;br&gt;Изображение гостя" style="edgeLabel;html=1;align=center;verticalAlign=middle;resizable=0;points=[];" parent="CIXTt0-dMJMr4OcohfUg-8" vertex="1" connectable="0">
          <mxGeometry x="-0.107" y="-1" relative="1" as="geometry">
            <mxPoint x="-67" y="19" as="offset" />
          </mxGeometry>
        </mxCell>
        <mxCell id="CIXTt0-dMJMr4OcohfUg-10" style="edgeStyle=orthogonalEdgeStyle;rounded=0;orthogonalLoop=1;jettySize=auto;html=1;exitX=1;exitY=0.75;exitDx=0;exitDy=0;exitPerimeter=0;entryX=0.75;entryY=1;entryDx=0;entryDy=0;entryPerimeter=0;" parent="1" source="CIXTt0-dMJMr4OcohfUg-3" target="CIXTt0-dMJMr4OcohfUg-22" edge="1">
          <mxGeometry relative="1" as="geometry">
            <mxPoint x="1970" y="240" as="targetPoint" />
            <Array as="points">
              <mxPoint x="1940" y="430" />
            </Array>
          </mxGeometry>
        </mxCell>
        <mxCell id="CIXTt0-dMJMr4OcohfUg-21" value="Видео звонок домофона" style="edgeLabel;html=1;align=center;verticalAlign=middle;resizable=0;points=[];" parent="CIXTt0-dMJMr4OcohfUg-10" vertex="1" connectable="0">
          <mxGeometry x="-0.4839" y="1" relative="1" as="geometry">
            <mxPoint x="41" y="11" as="offset" />
          </mxGeometry>
        </mxCell>
        <mxCell id="CIXTt0-dMJMr4OcohfUg-15" style="edgeStyle=orthogonalEdgeStyle;rounded=0;orthogonalLoop=1;jettySize=auto;html=1;entryX=1;entryY=0.25;entryDx=0;entryDy=0;entryPerimeter=0;dashed=1;exitX=0.25;exitY=1;exitDx=0;exitDy=0;exitPerimeter=0;" parent="1" source="CIXTt0-dMJMr4OcohfUg-22" target="CIXTt0-dMJMr4OcohfUg-3" edge="1">
          <mxGeometry relative="1" as="geometry">
            <mxPoint x="1850" y="240" as="sourcePoint" />
            <Array as="points">
              <mxPoint x="1840" y="370" />
            </Array>
          </mxGeometry>
        </mxCell>
        <mxCell id="CIXTt0-dMJMr4OcohfUg-16" value="Открытие двери из приложения" style="edgeLabel;html=1;align=center;verticalAlign=middle;resizable=0;points=[];" parent="CIXTt0-dMJMr4OcohfUg-15" vertex="1" connectable="0">
          <mxGeometry x="-0.3407" y="-5" relative="1" as="geometry">
            <mxPoint x="5" y="34" as="offset" />
          </mxGeometry>
        </mxCell>
        <mxCell id="CIXTt0-dMJMr4OcohfUg-17" style="edgeStyle=orthogonalEdgeStyle;rounded=0;orthogonalLoop=1;jettySize=auto;html=1;entryX=0.25;entryY=1;entryDx=0;entryDy=0;entryPerimeter=0;dashed=1;exitX=0.25;exitY=0;exitDx=0;exitDy=0;exitPerimeter=0;" parent="1" source="CIXTt0-dMJMr4OcohfUg-4" target="CIXTt0-dMJMr4OcohfUg-3" edge="1">
          <mxGeometry relative="1" as="geometry">
            <mxPoint x="1120" y="700" as="sourcePoint" />
            <mxPoint x="570" y="530" as="targetPoint" />
            <Array as="points">
              <mxPoint x="1180" y="570" />
              <mxPoint x="1570" y="570" />
            </Array>
          </mxGeometry>
        </mxCell>
        <mxCell id="CIXTt0-dMJMr4OcohfUg-18" value="&lt;div&gt;если номер авто атворизованный&amp;nbsp;&lt;/div&gt;&lt;div&gt;открывает ворота&lt;/div&gt;" style="edgeLabel;html=1;align=center;verticalAlign=middle;resizable=0;points=[];" parent="CIXTt0-dMJMr4OcohfUg-17" vertex="1" connectable="0">
          <mxGeometry x="-0.3407" y="-5" relative="1" as="geometry">
            <mxPoint x="42" y="-25" as="offset" />
          </mxGeometry>
        </mxCell>
        <mxCell id="CIXTt0-dMJMr4OcohfUg-19" style="edgeStyle=orthogonalEdgeStyle;rounded=0;orthogonalLoop=1;jettySize=auto;html=1;entryX=0.5;entryY=1;entryDx=0;entryDy=0;entryPerimeter=0;dashed=1;exitX=0.75;exitY=0;exitDx=0;exitDy=0;exitPerimeter=0;" parent="1" source="CIXTt0-dMJMr4OcohfUg-4" target="CIXTt0-dMJMr4OcohfUg-3" edge="1">
          <mxGeometry relative="1" as="geometry">
            <mxPoint x="1290" y="618" as="sourcePoint" />
            <mxPoint x="1470.2399999999998" y="420.03999999999996" as="targetPoint" />
            <Array as="points">
              <mxPoint x="1300" y="618" />
              <mxPoint x="1630" y="618" />
            </Array>
          </mxGeometry>
        </mxCell>
        <mxCell id="CIXTt0-dMJMr4OcohfUg-20" value="если собственник атворизованный&amp;nbsp;&lt;div&gt;открывает дверь&lt;/div&gt;" style="edgeLabel;html=1;align=center;verticalAlign=middle;resizable=0;points=[];" parent="CIXTt0-dMJMr4OcohfUg-19" vertex="1" connectable="0">
          <mxGeometry x="-0.425" y="1" relative="1" as="geometry">
            <mxPoint x="65" y="13" as="offset" />
          </mxGeometry>
        </mxCell>
        <object placeholders="1" c4Name="Собственник" c4Type="Person" c4Description="Клиент" label="&lt;font style=&quot;font-size: 16px&quot;&gt;&lt;b&gt;%c4Name%&lt;/b&gt;&lt;/font&gt;&lt;div&gt;[%c4Type%]&lt;/div&gt;&lt;br&gt;&lt;div&gt;&lt;font style=&quot;font-size: 11px&quot;&gt;&lt;font color=&quot;#cccccc&quot;&gt;%c4Description%&lt;/font&gt;&lt;/div&gt;" id="CIXTt0-dMJMr4OcohfUg-22">
          <mxCell style="html=1;fontSize=11;dashed=0;whiteSpace=wrap;fillColor=#083F75;strokeColor=#06315C;fontColor=#ffffff;shape=mxgraph.c4.person2;align=center;metaEdit=1;points=[[0.5,0,0],[1,0.5,0],[1,0.75,0],[0.75,1,0],[0.5,1,0],[0.25,1,0],[0,0.75,0],[0,0.5,0]];resizable=0;" parent="1" vertex="1">
            <mxGeometry x="1790" y="40" width="200" height="180" as="geometry" />
          </mxCell>
        </object>
        <mxCell id="AsEGR5zCAn1g4LLAhSmi-1" value="мы проверим совпадаение токенов с текущим данными собственноков" style="text;html=1;align=center;verticalAlign=middle;resizable=0;points=[];autosize=1;strokeColor=none;fillColor=none;" vertex="1" parent="1">
          <mxGeometry x="1100" y="760" width="420" height="30" as="geometry" />
        </mxCell>
      </root>
    </mxGraphModel>
  </diagram>
</mxfile>
